HIERARCHY
ROOT Hips
{
  OFFSET 57.8838 95.319 338.509
  CHANNELS 6 Xposition Yposition Zposition Zrotation Xrotation Yrotation
  JOINT LeftUpLeg
  {
    OFFSET 8.64259 1.95398 -2.38835
    CHANNELS 3 Zrotation Xrotation Yrotation
    JOINT LeftLeg
    {
      OFFSET 43.7702 0 0
      CHANNELS 3 Zrotation Xrotation Yrotation
      JOINT LeftFoot
      {
        OFFSET 40.6238 0 0
        CHANNELS 3 Zrotation Xrotation Yrotation
        JOINT LeftToeBase
        {
          OFFSET 12.7242 0 0
          CHANNELS 3 Zrotation Xrotation Yrotation
          End Site
          {
            OFFSET 0 0 0
          }
        }
      }
    }
  }
  JOINT RightUpLeg
  {
    OFFSET -8.2249 1.95398 -2.59336
    CHANNELS 3 Zrotation Xrotation Yrotation
    JOINT RightLeg
    {
      OFFSET 43.5653 0 0
      CHANNELS 3 Zrotation Xrotation Yrotation
      JOINT RightFoot
      {
        OFFSET 40.6238 0 0
        CHANNELS 3 Zrotation Xrotation Yrotation
        JOINT RightToeBase
        {
          OFFSET 12.7242 0 0
          CHANNELS 3 Zrotation Xrotation Yrotation
          End Site
          {
            OFFSET 0 0 0
          }
        }
      }
    }
  }
  JOINT Spine
  {
    OFFSET 0.165834 0.87714 6.61349
    CHANNELS 3 Zrotation Xrotation Yrotation
    JOINT Spine1
    {
      OFFSET 7.38963 1.71661e-005 0
      CHANNELS 3 Zrotation Xrotation Yrotation
      JOINT Spine2
      {
        OFFSET 11.9445 1.14441e-005 0
        CHANNELS 3 Zrotation Xrotation Yrotation
        JOINT Spine3
        {
          OFFSET 14.7254 4.19617e-005 0
          CHANNELS 3 Zrotation Xrotation Yrotation
          JOINT Spine4
          {
            OFFSET 10.9679 0 0
            CHANNELS 3 Zrotation Xrotation Yrotation
            JOINT RightShoulder
            {
              OFFSET 2.46616 -1.6653 3.69651
              CHANNELS 3 Zrotation Xrotation Yrotation
              JOINT RightArm
              {
                OFFSET 13.0012 0 0
                CHANNELS 3 Zrotation Xrotation Yrotation
                JOINT RightForeArm
                {
                  OFFSET 28.7848 1.62311e-005 0
                  CHANNELS 3 Zrotation Xrotation Yrotation
                  JOINT RightHand
                  {
                    OFFSET 26.5688 1.62095e-005 0
                    CHANNELS 3 Zrotation Xrotation Yrotation
                    End Site
                    {
                      OFFSET 0 0 0
                    }
                  }
                }
              }
            }
            JOINT LeftShoulder
            {
              OFFSET 2.38034 -1.29275 -3.7523
              CHANNELS 3 Zrotation Xrotation Yrotation
              JOINT LeftArm
              {
                OFFSET 16.3182 6.07031e-005 0
                CHANNELS 3 Zrotation Xrotation Yrotation
                JOINT LeftForeArm
                {
                  OFFSET 27.0901 0 0
                  CHANNELS 3 Zrotation Xrotation Yrotation
                  JOINT LeftHand
                  {
                    OFFSET 24.5451 1.51738e-005 0
                    CHANNELS 3 Zrotation Xrotation Yrotation
                    End Site
                    {
                      OFFSET 0 0 0
                    }
                  }
                }
              }
            }
            JOINT Neck
            {
              OFFSET 5.0226 -0.0266342 0
              CHANNELS 3 Zrotation Xrotation Yrotation
              JOINT Head
              {
                OFFSET 6.69364 2.86102e-005 0
                CHANNELS 3 Zrotation Xrotation Yrotation
                End Site
                {
                  OFFSET 0 0 0
                }
              }
            }
          }
        }
      }
    }
  }
}
MOTION
Frames:	12
Frame Time:	0.0416667
-58.5474 97.9282 -18.114 118.524 -84.1673 120.052 -179.245 -0.693155 85.9899 -10.1462 13.6054 0.89251 59.8725 4.73064 10.046 33.0132 1.71144 0.245019 175.336 2.98974 97.0609 -18.9119 -0.884304 -0.379835 69.9375 -3.86016 11.2923 24.0122 5.71675 4.38571 -0.0657239 7.00482 -90.2075 12.8637 -0.229877 -0.387162 1.19271 -0.246686 -0.376673 -21.342 -0.102887 -0.438346 -1.32938 -0.102892 -0.438355 95.6358 -54.9138 -91.5387 28.5034 -1.81092 -10.8814 2.46228 -11.94 -12.8887 -14.7449 -1.13537 3.83022 -82.7369 -51.2865 89.7754 -40.9062 -24.3716 -23.1607 5.30574 72.6485 0.0272663 2.70043 -0.145625 -12.4259 11.4895 -0.32793 -6.28388 -16.5122 0.158897 8.07577 
-58.6088 97.974 -18.0901 118.702 -84.1968 120.111 -179.349 -0.898249 85.9015 -9.69823 14.1137 0.856383 59.2671 4.41444 10.5499 33.6789 1.99467 -0.136645 175.506 3.33045 97.0171 -19.6116 -1.1565 -0.597471 69.7197 -2.61171 12.2691 25.014 4.66828 2.78819 -0.0693857 7.02241 -90.2149 12.8284 -0.240638 -0.400804 1.15741 -0.258039 -0.389826 -21.3773 -0.10906 -0.454595 -1.36464 -0.10906 -0.4546 95.6076 -54.6442 -91.6114 28.4996 -1.60849 -10.9302 2.58911 -11.0928 -12.8846 -14.552 -0.987525 2.76055 -82.8047 -51.7531 89.7156 -41.5026 -25.1757 -23.529 6.44996 73.4358 0.0285233 3.00078 -0.207001 -13.2648 12.7096 -0.137828 -5.58533 -17.7625 0.229809 7.48385 
-58.6368 98.0163 -18.0284 117.377 -84.2127 118.84 -179.2 -0.616372 86.0816 -9.97738 14.997 0.686415 58.9145 4.02931 11.1322 33.6091 1.93188 2.03142 175.525 3.52115 97.0215 -19.8292 -1.8103 -0.546303 69.4926 -2.40718 11.9306 24.7728 4.89206 3.45077 -0.0687586 7.03396 -90.2117 12.8053 -0.237823 -0.394852 1.13436 -0.254977 -0.384 -21.4004 -0.108162 -0.448073 -1.38773 -0.108167 -0.448072 95.7052 -54.6508 -91.4675 28.5885 -1.60095 -11.0956 2.58914 -11.0585 -12.8756 -14.893 -0.924864 2.06779 -82.8782 -51.5654 89.5897 -42.4587 -25.7587 -24.1472 7.51149 74.153 0.0297788 3.05807 -0.235303 -13.8877 13.4895 -0.21275 -6.4437 -18.5189 0.214826 8.54269 
-58.6919 97.9224 -17.9758 116.737 -84.0932 118.202 -179.254 -0.875808 86.0259 -9.47773 14.3556 0.746922 59.0727 4.53384 11.1486 32.8223 1.60282 1.79279 175.709 3.31759 97.2399 -19.4989 -0.964525 -0.756284 69.9095 -2.81083 12.1755 24.9345 4.78664 2.6654 -0.0989894 7.04167 -90.2022 12.7899 -0.293293 -0.369115 1.11896 -0.309233 -0.355857 -21.4159 -0.168798 -0.440194 -1.40323 -0.16879 -0.440195 95.615 -54.8021 -91.5816 28.4555 -1.89186 -11.0817 2.75495 -10.6044 -12.8958 -15.3437 -0.970005 2.19504 -82.6742 -51.4449 89.883 -42.5207 -25.7443 -24.1123 7.50605 74.2089 0.0298815 3.33519 -0.244957 -13.6091 13.2677 -0.270564 -6.6127 -18.2151 0.203484 8.59657 
-58.7265 97.9505 -17.9472 115.35 -84.0818 116.788 -179.343 -0.472785 86.042 -10.1079 14.9711 0.800719 58.9719 4.17491 11.1859 33.9817 2.09779 1.29387 175.699 3.62584 97.2318 -19.8642 -0.856836 -0.744238 69.7049 -2.40529 12.383 24.7846 4.85604 3.62085 -0.107555 7.03702 -90.2104 12.7992 -0.31419 -0.383063 1.12821 -0.330749 -0.368873 -21.4066 -0.184546 -0.459783 -1.39398 -0.184544 -0.459782 95.4911 -54.5799 -91.7897 28.7418 -1.62462 -10.9945 2.71078 -10.7851 -12.8618 -15.2972 -0.971823 2.23305 -82.7091 -51.7869 89.8605 -41.993 -25.5489 -24.0294 7.2125 73.9027 0.0293278 3.45674 -0.261264 -13.7646 12.8233 -0.258279 -6.66261 -17.6438 0.171798 9.12645 
-58.7709 97.8553 -17.9171 115.391 -83.958 116.816 -179.261 -0.684621 86.053 -9.88861 15.0647 0.750235 59.1215 4.66409 11.5001 35.1642 2.5906 1.04828 175.652 3.60079 97.3595 -19.9701 0.631515 -0.835688 70.3129 -2.92099 13.0943 24.9335 4.65731 3.72184 -0.113732 7.06651 -90.2041 12.7402 -0.323407 -0.369513 1.06927 -0.339357 -0.354929 -21.4656 -0.197408 -0.449624 -1.45296 -0.197404 -0.449626 95.5191 -54.7186 -91.7321 28.6247 -1.83859 -11.0044 2.77396 -10.4853 -12.9155 -15.5081 -0.961965 2.05237 -82.7328 -51.7165 89.8193 -42.2465 -25.667 -24.1517 7.39575 73.877 0.0292824 3.24691 -0.263282 -14.1119 12.8762 -0.303112 -6.40101 -17.631 0.122944 8.71341 
-58.8842 97.7915 -17.8595 116.915 -83.8443 118.355 -178.966 -0.593835 86.2545 -10.4994 15.1997 0.622799 59.4228 4.71613 11.5552 34.0656 2.12129 2.24693 175.665 3.44067 97.4998 -20.0979 0.618336 -0.788285 70.2755 -3.41115 12.8503 25.4736 4.07286 2.92232 -0.108935 7.12162 -90.2081 12.63 -0.31566 -0.378958 0.959025 -0.332031 -0.364701 -21.5758 -0.187176 -0.456301 -1.56317 -0.18718 -0.456307 95.5725 -54.5392 -91.675 28.9943 -1.68549 -11.0613 2.66004 -10.9383 -12.9696 -15.6026 -0.987473 2.20064 -82.9054 -51.9041 89.5803 -42.1663 -25.7267 -24.3374 7.53907 73.9389 0.0293921 2.97183 -0.258338 -14.5173 13.5993 -0.393033 -6.69822 -18.6735 0.0318658 8.99412 
-59.0378 97.7409 -17.8199 117.749 -83.6884 119.127 -178.669 0.0579549 86.4525 -12.2093 15.7689 0.469306 60.0291 4.65211 11.4574 32.8199 1.59151 2.30253 175.795 3.56678 97.5744 -20.6416 -0.289053 -0.74969 69.5209 -3.86436 11.7366 25.9685 3.35892 3.792 -0.110049 7.15997 -90.183 12.5534 -0.305746 -0.330054 0.882448 -0.319973 -0.316288 -21.6525 -0.192422 -0.406684 -1.63986 -0.192417 -0.406681 95.5117 -54.7545 -91.7389 28.817 -1.71881 -10.8674 2.5216 -10.9177 -13.2545 -15.2639 -0.943317 2.02817 -82.7939 -51.7533 89.7317 -42.1841 -25.6025 -24.6064 7.49559 73.8803 0.0292882 2.67913 -0.223349 -14.4227 13.0004 -0.421292 -6.70361 -17.8069 0.0794011 8.70063 
-59.2733 97.6604 -17.7967 119.516 -83.3784 120.814 -178.189 0.196615 86.7694 -13.1168 16.4774 0.198491 60.3871 4.58846 11.5973 34.3057 2.22703 1.97628 175.773 3.56153 97.7248 -21.2443 -0.396553 -0.666212 69.2336 -4.58959 11.0271 26.6977 2.44126 3.89398 -0.153799 7.23848 -90.1346 12.3965 -0.369547 -0.226727 0.725626 -0.379163 -0.210246 -21.8096 -0.284328 -0.327311 -1.797 -0.284318 -0.327304 95.4936 -54.9458 -91.7424 28.7851 -1.92045 -11.0369 2.37807 -11.1059 -13.409 -14.6919 -0.889829 1.88918 -82.7946 -51.3065 89.6911 -42.4112 -25.5509 -24.5845 7.4619 74.0619 0.029613 3.23124 -0.261982 -14.1588 13.3706 -0.34688 -6.4004 -18.2924 0.183309 7.8357 
-59.5772 97.4137 -17.8331 120.561 -82.8986 121.871 -177.935 0.363641 87.0157 -14.1733 17.0184 0.229554 60.9314 5.14062 12.023 35.7743 2.85044 1.84778 175.704 3.84118 98.1033 -22.1521 0.383014 -0.551069 68.8758 -5.38076 10.024 27.6627 1.23742 3.97779 -0.220768 7.32685 -90.0892 12.2199 -0.480993 -0.124347 0.549051 -0.485999 -0.103058 -21.9866 -0.421385 -0.263157 -1.97399 -0.421382 -0.263154 95.5432 -55.1223 -91.6493 28.7137 -2.3278 -11.0992 2.51212 -10.482 -13.8136 -15.4343 -0.948394 1.9775 -82.9683 -51.0581 89.409 -42.1414 -25.4441 -24.4065 7.28755 74.0367 0.0295676 2.50863 -0.21603 -14.4631 13.1232 -0.382651 -6.90514 -17.737 0.244394 8.23937 
-60.0631 97.2146 -17.9418 121.488 -82.8802 122.958 -177.231 1.22419 87.7065 -15.8114 17.2536 -0.0416458 61.6945 5.3934 11.6723 34.9193 2.49212 3.03889 175.518 4.69288 98.484 -23.7834 1.78497 -0.321853 69.1033 -5.74517 11.2194 28.3231 0.458146 3.11695 -0.270928 7.42124 -90.0372 12.0315 -0.556137 -0.0134917 0.360642 -0.556186 0.0109954 -22.1754 -0.526371 -0.180016 -2.16276 -0.526373 -0.180015 95.6736 -55.2526 -91.4445 28.8724 -2.61238 -11.345 2.29512 -10.6157 -14.539 -15.9545 -1.02341 2.2983 -82.8175 -50.5686 89.5903 -42.0579 -24.8406 -24.4078 6.91454 72.6537 0.0272742 3.45532 -0.318081 -14.791 13.1623 -0.70975 -8.22267 -17.1577 0.117645 9.65637 
-60.6138 97.1065 -18.0475 123.51 -82.8089 125.03 -176.964 1.73316 88.1707 -17.1571 17.0504 0.0638615 62.1484 5.31056 11.2331 35.5519 2.75789 1.8706 174.737 5.54375 98.3185 -25.9732 1.04576 0.35692 69.0295 -5.62469 12.0758 28.5004 0.229923 3.22538 -0.322899 7.54399 -89.9417 11.7865 -0.614719 0.181413 0.115687 -0.606137 0.208285 -22.4206 -0.640829 -0.0117262 -2.40798 -0.640824 -0.0117364 95.6684 -55.6495 -91.4067 28.7828 -2.91985 -11.4237 1.75796 -11.3034 -15.4542 -15.724 -1.02729 2.44035 -83.0756 -50.0737 89.1545 -42.2033 -25.0684 -24.4703 7.06776 72.69 0.0273296 3.6586 -0.324626 -14.5018 13.0374 -1.07126 -9.42888 -16.3489 0.0107796 10.5972 
